<?xml version="1.0" standalone="no"?>
<!DOCTYPE svg PUBLIC "-//W3C//DTD SVG 20010904//EN"
 "http://www.w3.org/TR/2001/REC-SVG-20010904/DTD/svg10.dtd">
<svg version="1.0" xmlns="http://www.w3.org/2000/svg"
 width="100.000000pt" height="100.000000pt" viewBox="0 0 100.000000 100.000000"
 preserveAspectRatio="xMidYMid meet">

<g transform="translate(0.000000,100.000000) scale(0.100000,-0.100000)"
fill="#0077be" stroke="none">
<path d="M785 788 c-381 -30 -691 -144 -738 -272 -5 -13 4 -28 35 -57 24 -22
61 -57 83 -78 22 -21 55 -47 73 -57 17 -10 35 -26 38 -36 6 -19 73 -62 114
-72 l25 -7 -26 15 c-14 8 -31 27 -38 43 -12 26 -10 30 17 54 33 30 150 64 254
75 63 6 70 9 105 48 l38 41 -28 3 c-44 5 -237 -26 -308 -50 -72 -24 -137 -63
-153 -93 -6 -11 -12 -22 -13 -24 -7 -12 -33 25 -33 46 0 79 201 155 467 178
85 7 86 7 143 79 14 18 11 18 -80 12 -326 -23 -568 -107 -602 -208 -7 -20 -38
10 -38 37 0 38 38 74 123 114 143 69 312 107 514 118 l111 6 36 43 c20 23 36
45 36 48 0 7 -2 7 -155 -6z"/>
</g>
</svg>